<svg width="32" height="32" viewBox="0 0 32 32" fill="none" xmlns="http://www.w3.org/2000/svg">
<path d="M16 32C24.8366 32 32 24.8366 32 16C32 7.16344 24.8366 0 16 0C7.16344 0 0 7.16344 0 16C0 24.8366 7.16344 32 16 32Z" fill="#486DFF" fill-opacity="0.1"/>
<path d="M15.125 9.49997L9.5 13H7C6.45 13 6 13.45 6 14V18C6 18.55 6.45 19 7 19H9.5L15.125 22.5C15.275 22.625 15.5 22.5 15.5 22.3V9.69997C15.5 9.52497 15.3 9.39997 15.125 9.49997Z" fill="#2551FF"/>
<path d="M21.9251 24.2L21.6001 23.825C21.5001 23.725 21.5251 23.575 21.6251 23.475C23.7751 21.575 25.0001 18.875 25.0001 16C25.0001 13.05 23.7251 10.275 21.4751 8.37502C21.4251 8.35002 21.3501 8.27502 21.2501 8.20002C21.1501 8.12502 21.1251 7.97502 21.2001 7.87502L21.4751 7.45002C21.5501 7.32502 21.7251 7.30002 21.8251 7.40002C21.9501 7.50002 22.0751 7.60002 22.0751 7.60002C24.5751 9.70002 26.0001 12.75 26.0001 16C26.0001 19.15 24.6501 22.15 22.3001 24.25C22.1751 24.325 22.0251 24.325 21.9251 24.2Z" fill="#2551FF"/>
<path d="M19.7751 22.075L19.4751 21.675C19.4001 21.575 19.4001 21.425 19.5251 21.325C21.1001 20 22.0001 18.075 22.0001 16C22.0001 13.925 21.1001 12 19.5001 10.675C19.4001 10.6 19.3751 10.425 19.4501 10.325L19.7501 9.92503C19.8251 9.82503 20.0001 9.80003 20.1001 9.87503C21.9501 11.425 23.0001 13.625 23.0001 16C23.0001 18.375 21.9501 20.575 20.1251 22.1C20.0251 22.2 19.8751 22.175 19.7751 22.075Z" fill="#2551FF"/>
<path d="M17.3999 19.55C17.2999 19.45 17.3249 19.275 17.4249 19.2C18.4249 18.425 18.9999 17.25 18.9999 16.025C18.9999 14.75 18.4249 13.575 17.4249 12.85C17.3249 12.775 17.2999 12.6 17.3749 12.5L17.6999 12.125C17.7749 12.025 17.9249 12 18.0499 12.075C19.2749 12.95 19.9999 14.425 19.9999 16C19.9999 17.525 19.2749 18.975 18.0749 19.95C17.9749 20.025 17.8249 20.025 17.7249 19.925L17.3999 19.55Z" fill="#2551FF"/>
</svg>
