<svg width="20" height="20" viewBox="0 0 20 20" fill="none" xmlns="http://www.w3.org/2000/svg">
<g clip-path="url(#clip0_2158_839)">
<path d="M15 10.5V14.5C15 14.775 14.7955 15 14.5455 15H5.45455C5.20455 15 5 14.775 5 14.5V10.5C5 7.465 7.24091 5 10 5C12.7591 5 15 7.465 15 10.5Z" stroke="#475569" stroke-width="1.5"/>
<path d="M18.25 18.5C18.25 18.7886 17.9096 19.25 17.2 19.25H2.8C2.09037 19.25 1.75 18.7886 1.75 18.5C1.75 18.2114 2.09037 17.75 2.8 17.75H17.2C17.9096 17.75 18.25 18.2114 18.25 18.5Z" stroke="#475569" stroke-width="1.5"/>
<path d="M5.39997 4.5C5.37379 4.5 5.34909 4.49041 5.32932 4.47065L3.52932 2.67068C3.49025 2.63161 3.49019 2.56849 3.52937 2.5293C3.56836 2.4903 3.63143 2.49015 3.67068 2.52935C3.67069 2.52936 3.67071 2.52938 3.67072 2.52939L5.47068 4.32931C5.50975 4.36838 5.50981 4.4315 5.47063 4.47069C5.45078 4.49047 5.42607 4.5 5.39997 4.5Z" stroke="#475569"/>
<path d="M14.5293 4.47065C14.5491 4.49041 14.5738 4.5 14.6 4.5C14.6261 4.5 14.6508 4.49045 14.6707 4.47065L14.6708 4.47056M14.5293 4.47065L15.0242 4.8242L14.6708 4.47056M14.5293 4.47065C14.4903 4.43159 14.4902 4.3685 14.5293 4.3293C14.5293 4.32929 14.5294 4.32927 14.5294 4.32926L16.3293 2.52932C16.3684 2.49025 16.4315 2.49019 16.4707 2.52937C16.5097 2.56836 16.5098 2.63141 16.4707 2.67067L14.5293 4.47065ZM14.6708 4.47056L16.4706 2.67071L14.6708 4.47056Z" stroke="#475569"/>
<path d="M10.1213 3.49406C10.1493 3.49406 10.1735 3.48337 10.192 3.46486C10.2105 3.4464 10.2212 3.42217 10.2212 3.39411V3.39399M10.1213 3.49406L10.7212 3.39412L10.2212 3.39399M10.1213 3.49406C10.0661 3.49406 10.0214 3.44951 10.0214 3.39412C10.0214 3.3941 10.0214 3.39407 10.0214 3.39405L10.0214 0.848556C10.0214 0.793301 10.066 0.748615 10.1214 0.748608C10.1765 0.748601 10.2212 0.793084 10.2212 0.848553L10.1213 3.49406ZM10.2212 3.39399L10.2212 0.848617L10.2212 3.39399Z" stroke="#475569"/>
</g>
<defs>
<clipPath id="clip0_2158_839">
<rect width="20" height="20" fill="white"/>
</clipPath>
</defs>
</svg>
