<svg width="20" height="21" viewBox="0 0 20 21" fill="none" xmlns="http://www.w3.org/2000/svg">
<mask id="path-1-inside-1_2158_797" fill="white">
<rect y="1.5" width="20" height="17.7778" rx="1"/>
</mask>
<rect y="1.5" width="20" height="17.7778" rx="1" stroke="#5A44FC" stroke-width="3" mask="url(#path-1-inside-1_2158_797)"/>
<rect x="0.25" y="-0.25" width="3.5" height="1.72222" transform="matrix(1 0 0 -1 3.55554 6.66638)" fill="#5A44FC" stroke="#5A44FC" stroke-width="0.5"/>
<rect x="0.25" y="-0.25" width="3.5" height="1.72222" transform="matrix(1 0 0 -1 3.55554 11.1108)" fill="#5A44FC" stroke="#5A44FC" stroke-width="0.5"/>
<rect x="0.25" y="-0.25" width="3.5" height="1.72222" transform="matrix(1 0 0 -1 3.55554 15.5553)" fill="#5A44FC" stroke="#5A44FC" stroke-width="0.5"/>
<rect x="0.25" y="-0.25" width="3.5" height="1.72222" transform="matrix(1 0 0 -1 12.2222 6.66663)" fill="#5A44FC" stroke="#5A44FC" stroke-width="0.5"/>
<rect x="0.25" y="-0.25" width="3.5" height="1.72222" transform="matrix(1 0 0 -1 12.2222 11.1111)" fill="#5A44FC" stroke="#5A44FC" stroke-width="0.5"/>
<rect x="0.25" y="-0.25" width="3.5" height="1.72222" transform="matrix(1 0 0 -1 12.2222 15.5555)" fill="#5A44FC" stroke="#5A44FC" stroke-width="0.5"/>
<path d="M10 2.5V18.5" stroke="#5A44FC" stroke-width="1.2"/>
</svg>
