<svg width="20" height="21" viewBox="0 0 20 21" fill="none" xmlns="http://www.w3.org/2000/svg">
<g clip-path="url(#clip0_2216_782)">
<path d="M7.50005 1.49998C7.50005 1.39998 7.40005 1.29998 7.30005 1.19998C7.20005 1.19998 7.10005 1.09998 7.00005 1.09998C6.90005 1.09998 6.80005 1.09998 6.70005 1.09998C4.50005 1.89998 2.60005 3.49998 1.40005 5.49998C0.200049 7.49998 -0.199951 9.99998 0.200049 12.3C0.200049 12.4 0.300049 12.5 0.300049 12.6C0.300049 12.7 0.500049 12.8 0.600049 12.8C0.700049 12.8 0.800049 12.9 0.900049 12.9C1.00005 12.9 1.10005 12.9 1.30005 12.8L7.30005 9.29998C7.40005 9.19998 7.50005 9.09998 7.60005 8.99998C7.70005 8.89998 7.70005 8.79998 7.70005 8.59998V1.79998C7.60005 1.69998 7.60005 1.59998 7.50005 1.49998ZM6.20005 2.99998V8.29998L1.60005 11H1.50005V10.9C1.50005 10.8 1.50005 10.6 1.50005 10.5C1.50005 8.89998 1.90005 7.39998 2.80005 6.09998C3.60005 4.69998 4.70005 3.59998 6.20005 2.99998Z" fill="#475569"/>
<path d="M13.3 1.10003L12.7 0.900029C9.10004 2.93255e-05 9.30004 1.30003 9.30004 1.30003V10.2L1.80004 14.8C1.80004 14.8 0.60004 15.3 3.20004 17.9L3.50004 18.2C5.30004 19.7 7.50004 20.5 10 20.5C15.5 20.5 20 16 20 10.5C20 6.10003 17.2 2.40003 13.3 1.10003Z" fill="#475569"/>
</g>
<defs>
<clipPath id="clip0_2216_782">
<rect width="20" height="20" fill="white" transform="translate(0 0.5)"/>
</clipPath>
</defs>
</svg>
