<svg width="24" height="24" viewBox="0 0 24 24" fill="none" xmlns="http://www.w3.org/2000/svg">
<path d="M1.8269 4.46973H22.1731" stroke="#F1C822" stroke-width="3"/>
<path fill-rule="evenodd" clip-rule="evenodd" d="M0.5 4.33738C0.5 3.18634 1.42413 2.25323 2.5641 2.25323H21.4359C22.5759 2.25323 23.5 3.18634 23.5 4.33738V21.4158C23.5 22.5669 22.5759 23.5 21.4359 23.5H2.5641C1.42413 23.5 0.5 22.5669 0.5 21.4158V4.33738ZM2.5641 4.03964C2.40125 4.03964 2.26923 4.17294 2.26923 4.33738V21.4158C2.26923 21.5803 2.40125 21.7136 2.5641 21.7136H21.4359C21.5988 21.7136 21.7308 21.5803 21.7308 21.4158V4.33738C21.7308 4.17294 21.5988 4.03964 21.4359 4.03964H2.5641Z" fill="#F1C822"/>
<rect x="3.32617" y="1" width="1.62108" height="1.64653" fill="#F1C822" stroke="#F1C822"/>
<rect x="19.0527" y="1" width="1.62108" height="1.64653" fill="#F1C822" stroke="#F1C822"/>
<rect x="8.75635" y="8.83655" width="2.35897" height="9.52751" fill="#F1C822"/>
<rect x="13.4744" y="8.83655" width="2.35897" height="9.52751" fill="#F1C822"/>
</svg>
