<svg width="32" height="22" viewBox="0 0 32 22" fill="none" xmlns="http://www.w3.org/2000/svg">
<circle cx="28.4" cy="18.8173" r="3.1" fill="#624EFC"/>
<circle cx="28.4001" cy="18.8174" r="1.48261" fill="white"/>
<path fill-rule="evenodd" clip-rule="evenodd" d="M8.76953 0.0825806C4.35125 0.0825806 0.769531 3.6643 0.769531 8.08258V9.78693H5.3711C5.64752 5.86998 8.91268 2.7782 12.9 2.7782H20.9869C21.3304 2.7782 21.6686 2.80115 22 2.8456C20.5331 1.15311 18.3676 0.0825806 15.9521 0.0825806H8.76953Z" fill="#624EFC"/>
<circle cx="3.86957" cy="18.5478" r="3.36957" fill="#624EFC"/>
<circle cx="3.86957" cy="18.5478" r="3.36957" fill="#624EFC"/>
<path fill-rule="evenodd" clip-rule="evenodd" d="M5.94228 10.6466H0.769531V15.8961C1.41852 14.9314 2.54654 14.2931 3.82947 14.2931C5.26616 14.2931 6.50859 15.0936 7.10156 16.2565H11.5521C11.5521 13.1582 9.04052 10.6466 5.94228 10.6466Z" fill="#624EFC"/>
<circle cx="3.86957" cy="18.5478" r="1.48261" fill="white"/>
<path fill-rule="evenodd" clip-rule="evenodd" d="M23.9522 17.3348H7.77832V20.0304H23.9523C23.8285 19.601 23.7625 19.149 23.7625 18.6825C23.7625 18.2161 23.8285 17.7642 23.9522 17.3348Z" fill="#624EFC"/>
<rect x="12.8999" y="4.39563" width="1.88696" height="11.8609" fill="#624EFC"/>
<path d="M12.8999 13.0217H15.5956C17.3821 13.0217 18.8303 14.47 18.8303 16.2565H12.8999V13.0217Z" fill="#624EFC"/>
<path d="M27.1869 12.3478L24.4913 4.93475C23.328 5.00318 22.5393 6.14735 22.8892 7.25887L24.4913 12.3478H27.1869Z" fill="#624EFC"/>
<path d="M21.7956 4.66516H20.4478L20.9869 9.24777L19.1 9.7869L19.3695 10.7304L21.3913 10.1912L21.6608 15.0434L18.2913 20.0304H23.8173C23.2782 14.9626 27.4565 14.5941 29.613 15.0434V13.9652C28.966 13.3182 25.9289 13.2463 24.4913 13.2912C23.5927 11.4043 21.7687 7.4956 21.6608 6.95647C21.553 6.41734 21.7058 5.20429 21.7956 4.66516Z" fill="#624EFC"/>
</svg>
