<svg width="28" height="28" viewBox="0 0 28 28" fill="none" xmlns="http://www.w3.org/2000/svg">
<path d="M18.1453 12.2555C19.6924 12.2555 21.1466 12.8565 22.2392 13.9492L23.3105 15.0205C25.4986 14.0503 27.207 12.1056 27.7741 9.73495C28.0872 8.42682 28.0662 7.16026 27.7859 5.99432C27.643 5.39932 26.8874 5.20081 26.4548 5.63317L22.6868 9.40113L18.5525 9.40113L18.5525 5.31565L22.3204 1.54768C22.7531 1.11499 22.5542 0.359323 21.9593 0.216589C20.7933 -0.0636849 19.5268 -0.0847398 18.2186 0.228335C15.1944 0.95185 12.8379 3.52161 12.3561 6.59396C12.2773 7.04924 12.2609 7.49221 12.2664 7.92971L16.7934 12.4611C17.2375 12.3102 17.6914 12.2555 18.1453 12.2555ZM21 15.236C19.7334 13.9694 17.8516 13.7282 16.3302 14.4758L10.4508 8.64065L10.4508 5.24948L3.5 2.29908e-05L-6.03368e-07 3.4508L5.25 10.4016L8.64281 10.402L14.478 16.2317C13.7304 17.7531 13.9721 19.6349 15.2387 20.9015L21.6371 27.3054C22.4366 28.0983 23.7267 28.0983 24.5197 27.3053L27.4045 24.4205C28.1974 23.6275 28.1974 22.338 27.4044 21.5379L21 15.236ZM12.4633 16.7891L9.22578 13.5571L1.08281 21.7C-0.359301 23.1421 -0.359301 25.4778 1.08281 26.9199C1.8025 27.6391 2.74585 28 3.6914 28C4.63695 28 5.58031 27.6395 6.30109 26.9183L12.8144 20.405C12.332 19.2664 12.1734 18.0141 12.4633 16.7891ZM3.5 25.8125C2.77539 25.8125 2.1875 25.2246 2.1875 24.5C2.1875 23.7749 2.77539 23.1875 3.5 23.1875C4.22461 23.1875 4.8125 23.7727 4.8125 24.5C4.8125 25.2274 4.22461 25.8125 3.5 25.8125Z" fill="#FF8282"/>
</svg>
