<svg width="20" height="19" viewBox="0 0 20 19" fill="none" xmlns="http://www.w3.org/2000/svg">
<path d="M8.5 18.5C9.32843 18.5 10 17.8284 10 17C10 16.1716 9.32843 15.5 8.5 15.5C7.67157 15.5 7 16.1716 7 17C7 17.8284 7.67157 18.5 8.5 18.5Z" fill="#475569" stroke="#475569" stroke-linecap="round" stroke-linejoin="round"/>
<path d="M15.5 18.5C16.3284 18.5 17 17.8284 17 17C17 16.1716 16.3284 15.5 15.5 15.5C14.6716 15.5 14 16.1716 14 17C14 17.8284 14.6716 18.5 15.5 18.5Z" fill="#475569" stroke="#475569" stroke-linecap="round" stroke-linejoin="round"/>
<path d="M1 1.40906H4.27273L6.46545 12.3645C6.54027 12.7412 6.7452 13.0796 7.04436 13.3204C7.34351 13.5612 7.71784 13.6891 8.10182 13.6818H16.0545C16.4385 13.6891 16.8129 13.5612 17.112 13.3204C17.4112 13.0796 17.6161 12.7412 17.6909 12.3645L19 5.49997H5.09091" stroke="#475569" stroke-width="1.8" stroke-linecap="round" stroke-linejoin="round"/>
</svg>
