<svg width="24" height="24" viewBox="0 0 24 24" fill="none" xmlns="http://www.w3.org/2000/svg">
<g clip-path="url(#clip0_120469_151)">
<path d="M12.2452 0.207546C5.89846 0.207546 0.754639 5.35137 0.754639 11.6981C0.754639 18.0449 5.89846 23.1887 12.2452 23.1887C18.5919 23.1887 23.7358 18.0449 23.7358 11.6981C23.7358 5.35137 18.5919 0.207546 12.2452 0.207546ZM12.2452 5.95283C14.0303 5.95283 15.4769 7.39992 15.4769 9.18455C15.4769 10.9692 14.0316 12.4163 12.2452 12.4163C10.4606 12.4163 9.01348 10.9692 9.01348 9.18455C9.01348 7.39992 10.4588 5.95283 12.2452 5.95283ZM12.2452 20.316C9.86944 20.316 7.71631 19.3497 6.15431 17.7895C6.88144 15.9128 8.67685 14.5708 10.8089 14.5708H13.6815C15.8154 14.5708 17.6108 15.9119 18.3361 17.7895C16.7741 19.351 14.6196 20.316 12.2452 20.316Z" fill="#64748B"/>
</g>
<defs>
<clipPath id="clip0_120469_151">
<rect width="22.9811" height="22.9811" fill="white" transform="translate(0.754639 0.207546)"/>
</clipPath>
</defs>
</svg>
