<svg width="20" height="21" viewBox="0 0 20 21" fill="none" xmlns="http://www.w3.org/2000/svg">
<mask id="path-1-inside-1_2158_860" fill="white">
<path d="M9.99857 5.91212C9.09145 5.91212 8.20471 6.18111 7.45047 6.68507C6.69623 7.18904 6.10838 7.90534 5.76124 8.74341C5.4141 9.58147 5.32327 10.5037 5.50024 11.3933C5.67721 12.283 6.11403 13.1003 6.75546 13.7417C7.39688 14.3831 8.21411 14.8199 9.1038 14.9969C9.99348 15.1739 10.9157 15.083 11.7537 14.7359C12.5918 14.3888 13.3081 13.8009 13.8121 13.0467C14.316 12.2924 14.585 11.4057 14.585 10.4986C14.5838 9.28255 14.1001 8.11671 13.2403 7.25685C12.3804 6.397 11.2146 5.91338 9.99857 5.91212ZM9.99857 13.5562C9.39382 13.5562 8.80266 13.3769 8.29984 13.0409C7.79701 12.7049 7.40511 12.2274 7.17368 11.6687C6.94226 11.11 6.8817 10.4952 6.99968 9.90205C7.11766 9.30893 7.40888 8.76411 7.83649 8.33649C8.26411 7.90888 8.80893 7.61766 9.40205 7.49968C9.99518 7.3817 10.61 7.44226 11.1687 7.67368C11.7274 7.90511 12.2049 8.29701 12.5409 8.79984C12.8769 9.30266 13.0562 9.89382 13.0562 10.4986C13.0562 11.3095 12.7341 12.0872 12.1606 12.6606C11.5872 13.2341 10.8095 13.5562 9.99857 13.5562ZM18.4071 10.705C18.4109 10.5674 18.4109 10.4298 18.4071 10.2922L19.8327 8.5111C19.9074 8.41759 19.9592 8.30783 19.9837 8.19065C20.0083 8.07348 20.005 7.95218 19.9741 7.83651C19.7404 6.95802 19.3908 6.11454 18.9345 5.3283C18.8748 5.22541 18.7918 5.13788 18.6923 5.07269C18.5928 5.0075 18.4794 4.96644 18.3612 4.95278L16.0947 4.70053C16.0004 4.60116 15.9049 4.5056 15.8081 4.41388L15.5405 2.14167C15.5268 2.02339 15.4856 1.90996 15.4202 1.81042C15.3548 1.71089 15.2671 1.628 15.1641 1.56836C14.3775 1.11292 13.5341 0.763666 12.6558 0.529724C12.5401 0.498954 12.4188 0.495807 12.3016 0.520536C12.1844 0.545266 12.0747 0.59718 11.9813 0.672095L10.205 2.09007C10.0674 2.09007 9.92977 2.09007 9.79218 2.09007L8.0111 0.667318C7.91759 0.592567 7.80783 0.540825 7.69065 0.516262C7.57348 0.491699 7.45218 0.495001 7.33651 0.525902C6.45816 0.760028 5.61474 1.10961 4.8283 1.5655C4.72541 1.62524 4.63788 1.70818 4.57269 1.80771C4.5075 1.90724 4.46644 2.02061 4.45278 2.1388L4.20053 4.4091C4.10116 4.50401 4.0056 4.59956 3.91388 4.69575L1.64167 4.9566C1.52339 4.97037 1.40996 5.01157 1.31042 5.07693C1.21089 5.14229 1.128 5.23001 1.06836 5.33308C0.612917 6.11962 0.263666 6.96303 0.0297242 7.84129C-0.00104622 7.95703 -0.00419339 8.07837 0.0205363 8.19555C0.0452659 8.31273 0.0971805 8.42245 0.172095 8.51588L1.59007 10.2922C1.59007 10.4298 1.59007 10.5674 1.59007 10.705L0.167318 12.486C0.0925665 12.5795 0.0408252 12.6893 0.0162621 12.8065C-0.0083009 12.9237 -0.00499902 13.045 0.025902 13.1606C0.25961 14.0391 0.609212 14.8826 1.0655 15.6688C1.12524 15.7717 1.20818 15.8593 1.30771 15.9244C1.40724 15.9896 1.52061 16.0307 1.6388 16.0444L3.90528 16.2966C4.00019 16.396 4.09574 16.4915 4.19193 16.5833L4.4566 18.8555C4.47037 18.9737 4.51157 19.0872 4.57693 19.1867C4.64229 19.2862 4.73001 19.3691 4.83308 19.4288C5.61962 19.8842 6.46303 20.2335 7.34129 20.4674C7.45703 20.4982 7.57837 20.5013 7.69555 20.4766C7.81273 20.4519 7.92245 20.4 8.01588 20.325L9.79218 18.9071C9.92977 18.9109 10.0674 18.9109 10.205 18.9071L11.986 20.3327C12.0795 20.4074 12.1893 20.4592 12.3065 20.4837C12.4237 20.5083 12.545 20.505 12.6606 20.4741C13.5391 20.2404 14.3826 19.8908 15.1688 19.4345C15.2717 19.3748 15.3593 19.2918 15.4244 19.1923C15.4896 19.0928 15.5307 18.9794 15.5444 18.8612L15.7966 16.5947C15.896 16.5004 15.9915 16.4049 16.0833 16.3081L18.3555 16.0405C18.4737 16.0268 18.5872 15.9856 18.6867 15.9202C18.7862 15.8548 18.8691 15.7671 18.9288 15.6641C19.3842 14.8775 19.7335 14.0341 19.9674 13.1558C19.9982 13.0401 20.0013 12.9188 19.9766 12.8016C19.9519 12.6844 19.9 12.5747 19.825 12.4813L18.4071 10.705ZM16.8687 10.0839C16.8849 10.3601 16.8849 10.637 16.8687 10.9133C16.8573 11.1024 16.9166 11.289 17.0349 11.4369L18.3908 13.131C18.2352 13.6254 18.036 14.1051 17.7955 14.5643L15.6361 14.8089C15.448 14.8298 15.2744 14.9196 15.1488 15.0611C14.9648 15.268 14.7689 15.4639 14.5621 15.6478C14.4206 15.7734 14.3307 15.9471 14.3098 16.1351L14.07 18.2927C13.6109 18.5333 13.1312 18.7325 12.6367 18.888L10.9417 17.5321C10.806 17.4237 10.6375 17.3647 10.4639 17.3649H10.418C10.1418 17.3811 9.86488 17.3811 9.58865 17.3649C9.39954 17.3535 9.21294 17.4127 9.06503 17.5311L7.36613 18.888C6.87169 18.7324 6.39205 18.5332 5.93287 18.2927L5.68826 16.1361C5.66738 15.948 5.5775 15.7744 5.436 15.6488C5.22914 15.4648 5.03325 15.2689 4.84932 15.0621C4.7237 14.9206 4.55007 14.8307 4.36201 14.8098L2.20447 14.569C1.96386 14.1099 1.76465 13.6303 1.60918 13.1358L2.96505 11.4407C3.08345 11.2928 3.1427 11.1062 3.13131 10.9171C3.11507 10.6409 3.11507 10.3639 3.13131 10.0877C3.1427 9.89858 3.08345 9.71198 2.96505 9.56408L1.60918 7.86613C1.76476 7.37169 1.96398 6.89205 2.20447 6.43287L4.36105 6.18826C4.54911 6.16738 4.72275 6.0775 4.84836 5.936C5.03229 5.72914 5.22819 5.53325 5.43505 5.34932C5.57711 5.22362 5.66736 5.04959 5.68826 4.86105L5.92809 2.70447C6.38722 2.46386 6.86687 2.26465 7.36136 2.10918L9.05643 3.46505C9.20434 3.58345 9.39094 3.6427 9.58005 3.63131C9.85628 3.61507 10.1332 3.61507 10.4094 3.63131C10.5985 3.6427 10.7852 3.58345 10.9331 3.46505L12.631 2.10918C13.1254 2.26476 13.6051 2.46398 14.0643 2.70447L14.3089 4.86105C14.3298 5.04911 14.4196 5.22275 14.5611 5.34836C14.768 5.53229 14.9639 5.72819 15.1478 5.93505C15.2734 6.07655 15.4471 6.16643 15.6351 6.1873L17.7927 6.42714C18.0333 6.88626 18.2325 7.36591 18.388 7.8604L17.0321 9.55548C16.9125 9.70463 16.8532 9.89315 16.8658 10.0839H16.8687Z"/>
</mask>
<path d="M9.99857 5.91212C9.09145 5.91212 8.20471 6.18111 7.45047 6.68507C6.69623 7.18904 6.10838 7.90534 5.76124 8.74341C5.4141 9.58147 5.32327 10.5037 5.50024 11.3933C5.67721 12.283 6.11403 13.1003 6.75546 13.7417C7.39688 14.3831 8.21411 14.8199 9.1038 14.9969C9.99348 15.1739 10.9157 15.083 11.7537 14.7359C12.5918 14.3888 13.3081 13.8009 13.8121 13.0467C14.316 12.2924 14.585 11.4057 14.585 10.4986C14.5838 9.28255 14.1001 8.11671 13.2403 7.25685C12.3804 6.397 11.2146 5.91338 9.99857 5.91212ZM9.99857 13.5562C9.39382 13.5562 8.80266 13.3769 8.29984 13.0409C7.79701 12.7049 7.40511 12.2274 7.17368 11.6687C6.94226 11.11 6.8817 10.4952 6.99968 9.90205C7.11766 9.30893 7.40888 8.76411 7.83649 8.33649C8.26411 7.90888 8.80893 7.61766 9.40205 7.49968C9.99518 7.3817 10.61 7.44226 11.1687 7.67368C11.7274 7.90511 12.2049 8.29701 12.5409 8.79984C12.8769 9.30266 13.0562 9.89382 13.0562 10.4986C13.0562 11.3095 12.7341 12.0872 12.1606 12.6606C11.5872 13.2341 10.8095 13.5562 9.99857 13.5562ZM18.4071 10.705C18.4109 10.5674 18.4109 10.4298 18.4071 10.2922L19.8327 8.5111C19.9074 8.41759 19.9592 8.30783 19.9837 8.19065C20.0083 8.07348 20.005 7.95218 19.9741 7.83651C19.7404 6.95802 19.3908 6.11454 18.9345 5.3283C18.8748 5.22541 18.7918 5.13788 18.6923 5.07269C18.5928 5.0075 18.4794 4.96644 18.3612 4.95278L16.0947 4.70053C16.0004 4.60116 15.9049 4.5056 15.8081 4.41388L15.5405 2.14167C15.5268 2.02339 15.4856 1.90996 15.4202 1.81042C15.3548 1.71089 15.2671 1.628 15.1641 1.56836C14.3775 1.11292 13.5341 0.763666 12.6558 0.529724C12.5401 0.498954 12.4188 0.495807 12.3016 0.520536C12.1844 0.545266 12.0747 0.59718 11.9813 0.672095L10.205 2.09007C10.0674 2.09007 9.92977 2.09007 9.79218 2.09007L8.0111 0.667318C7.91759 0.592567 7.80783 0.540825 7.69065 0.516262C7.57348 0.491699 7.45218 0.495001 7.33651 0.525902C6.45816 0.760028 5.61474 1.10961 4.8283 1.5655C4.72541 1.62524 4.63788 1.70818 4.57269 1.80771C4.5075 1.90724 4.46644 2.02061 4.45278 2.1388L4.20053 4.4091C4.10116 4.50401 4.0056 4.59956 3.91388 4.69575L1.64167 4.9566C1.52339 4.97037 1.40996 5.01157 1.31042 5.07693C1.21089 5.14229 1.128 5.23001 1.06836 5.33308C0.612917 6.11962 0.263666 6.96303 0.0297242 7.84129C-0.00104622 7.95703 -0.00419339 8.07837 0.0205363 8.19555C0.0452659 8.31273 0.0971805 8.42245 0.172095 8.51588L1.59007 10.2922C1.59007 10.4298 1.59007 10.5674 1.59007 10.705L0.167318 12.486C0.0925665 12.5795 0.0408252 12.6893 0.0162621 12.8065C-0.0083009 12.9237 -0.00499902 13.045 0.025902 13.1606C0.25961 14.0391 0.609212 14.8826 1.0655 15.6688C1.12524 15.7717 1.20818 15.8593 1.30771 15.9244C1.40724 15.9896 1.52061 16.0307 1.6388 16.0444L3.90528 16.2966C4.00019 16.396 4.09574 16.4915 4.19193 16.5833L4.4566 18.8555C4.47037 18.9737 4.51157 19.0872 4.57693 19.1867C4.64229 19.2862 4.73001 19.3691 4.83308 19.4288C5.61962 19.8842 6.46303 20.2335 7.34129 20.4674C7.45703 20.4982 7.57837 20.5013 7.69555 20.4766C7.81273 20.4519 7.92245 20.4 8.01588 20.325L9.79218 18.9071C9.92977 18.9109 10.0674 18.9109 10.205 18.9071L11.986 20.3327C12.0795 20.4074 12.1893 20.4592 12.3065 20.4837C12.4237 20.5083 12.545 20.505 12.6606 20.4741C13.5391 20.2404 14.3826 19.8908 15.1688 19.4345C15.2717 19.3748 15.3593 19.2918 15.4244 19.1923C15.4896 19.0928 15.5307 18.9794 15.5444 18.8612L15.7966 16.5947C15.896 16.5004 15.9915 16.4049 16.0833 16.3081L18.3555 16.0405C18.4737 16.0268 18.5872 15.9856 18.6867 15.9202C18.7862 15.8548 18.8691 15.7671 18.9288 15.6641C19.3842 14.8775 19.7335 14.0341 19.9674 13.1558C19.9982 13.0401 20.0013 12.9188 19.9766 12.8016C19.9519 12.6844 19.9 12.5747 19.825 12.4813L18.4071 10.705ZM16.8687 10.0839C16.8849 10.3601 16.8849 10.637 16.8687 10.9133C16.8573 11.1024 16.9166 11.289 17.0349 11.4369L18.3908 13.131C18.2352 13.6254 18.036 14.1051 17.7955 14.5643L15.6361 14.8089C15.448 14.8298 15.2744 14.9196 15.1488 15.0611C14.9648 15.268 14.7689 15.4639 14.5621 15.6478C14.4206 15.7734 14.3307 15.9471 14.3098 16.1351L14.07 18.2927C13.6109 18.5333 13.1312 18.7325 12.6367 18.888L10.9417 17.5321C10.806 17.4237 10.6375 17.3647 10.4639 17.3649H10.418C10.1418 17.3811 9.86488 17.3811 9.58865 17.3649C9.39954 17.3535 9.21294 17.4127 9.06503 17.5311L7.36613 18.888C6.87169 18.7324 6.39205 18.5332 5.93287 18.2927L5.68826 16.1361C5.66738 15.948 5.5775 15.7744 5.436 15.6488C5.22914 15.4648 5.03325 15.2689 4.84932 15.0621C4.7237 14.9206 4.55007 14.8307 4.36201 14.8098L2.20447 14.569C1.96386 14.1099 1.76465 13.6303 1.60918 13.1358L2.96505 11.4407C3.08345 11.2928 3.1427 11.1062 3.13131 10.9171C3.11507 10.6409 3.11507 10.3639 3.13131 10.0877C3.1427 9.89858 3.08345 9.71198 2.96505 9.56408L1.60918 7.86613C1.76476 7.37169 1.96398 6.89205 2.20447 6.43287L4.36105 6.18826C4.54911 6.16738 4.72275 6.0775 4.84836 5.936C5.03229 5.72914 5.22819 5.53325 5.43505 5.34932C5.57711 5.22362 5.66736 5.04959 5.68826 4.86105L5.92809 2.70447C6.38722 2.46386 6.86687 2.26465 7.36136 2.10918L9.05643 3.46505C9.20434 3.58345 9.39094 3.6427 9.58005 3.63131C9.85628 3.61507 10.1332 3.61507 10.4094 3.63131C10.5985 3.6427 10.7852 3.58345 10.9331 3.46505L12.631 2.10918C13.1254 2.26476 13.6051 2.46398 14.0643 2.70447L14.3089 4.86105C14.3298 5.04911 14.4196 5.22275 14.5611 5.34836C14.768 5.53229 14.9639 5.72819 15.1478 5.93505C15.2734 6.07655 15.4471 6.16643 15.6351 6.1873L17.7927 6.42714C18.0333 6.88626 18.2325 7.36591 18.388 7.8604L17.0321 9.55548C16.9125 9.70463 16.8532 9.89315 16.8658 10.0839H16.8687Z" fill="#475569" stroke="#475569" stroke-width="0.25" mask="url(#path-1-inside-1_2158_860)"/>
</svg>
