<svg width="30" height="31" viewBox="0 0 30 31" fill="none" xmlns="http://www.w3.org/2000/svg">
<g clip-path="url(#clip0_17_760)">
<path d="M10.7361 17.4937L0.22583 22.8492L1.49023 24.946L12.0005 19.5905L10.7361 17.4937Z" fill="#64748B"/>
<path d="M7.57789 29.0923H5.89496V23.6364L7.57789 22.831V29.0923Z" fill="#64748B"/>
<path d="M19.637 17.4528L9.12622 22.8085L10.3909 24.9058L20.9016 19.5501L19.637 17.4528Z" fill="#64748B"/>
<path d="M16.4406 29.0923H14.7577V23.6364L16.4406 22.831V29.0923Z" fill="#64748B"/>
<path d="M28.4616 17.4947L17.9513 22.8502L19.2157 24.947L29.726 19.5916L28.4616 17.4947Z" fill="#64748B"/>
<path d="M25.3083 29.0923H23.6204V23.6364L25.3083 22.831V29.0923Z" fill="#64748B"/>
<path d="M29.7506 27.71H0.248596V30.875H29.7506V27.71Z" fill="#64748B"/>
<path d="M9.29161 2.83552C9.2108 2.83552 9.13326 2.80599 9.07612 2.75347C9.01899 2.70095 8.98694 2.62973 8.98694 2.55545V0.405064C8.98694 0.330786 9.01899 0.259572 9.07612 0.20705C9.13326 0.154528 9.2108 0.125 9.29161 0.125C9.37241 0.125 9.44988 0.154528 9.50702 0.20705C9.56415 0.259572 9.59627 0.330786 9.59627 0.405064V2.55545C9.59627 2.62973 9.56415 2.70095 9.50702 2.75347C9.44988 2.80599 9.37241 2.83552 9.29161 2.83552Z" fill="#64748B"/>
<path d="M2.64367 8.94645H0.305034C0.224231 8.94645 0.146761 8.91692 0.0896243 8.8644C0.0324881 8.81188 0.000366211 8.74066 0.000366211 8.66639C0.000366211 8.59211 0.0324881 8.52089 0.0896243 8.46837C0.146761 8.41585 0.224231 8.38632 0.305034 8.38632H2.64367C2.72447 8.38632 2.80194 8.41585 2.85908 8.46837C2.91622 8.52089 2.94834 8.59211 2.94834 8.66639C2.94834 8.74066 2.91622 8.81188 2.85908 8.8644C2.80194 8.91692 2.72447 8.94645 2.64367 8.94645Z" fill="#64748B"/>
<path d="M9.29161 17.2083C9.2108 17.2083 9.13326 17.1788 9.07612 17.1263C9.01899 17.0737 8.98694 17.0025 8.98694 16.9283V14.7779C8.98694 14.7036 9.01899 14.6324 9.07612 14.5799C9.13326 14.5273 9.2108 14.4978 9.29161 14.4978C9.37241 14.4978 9.44988 14.5273 9.50702 14.5799C9.56415 14.6324 9.59627 14.7036 9.59627 14.7779V16.9283C9.59627 17.0025 9.56415 17.0737 9.50702 17.1263C9.44988 17.1788 9.37241 17.2083 9.29161 17.2083Z" fill="#64748B"/>
<path d="M18.2793 8.94645H15.9394C15.8586 8.94645 15.7812 8.91692 15.724 8.8644C15.6669 8.81188 15.6348 8.74066 15.6348 8.66639C15.6348 8.59211 15.6669 8.52089 15.724 8.46837C15.7812 8.41585 15.8586 8.38632 15.9394 8.38632H18.2793C18.3601 8.38632 18.4376 8.41585 18.4947 8.46837C18.5519 8.52089 18.584 8.59211 18.584 8.66639C18.584 8.74066 18.5519 8.81188 18.4947 8.8644C18.4376 8.91692 18.3601 8.94645 18.2793 8.94645Z" fill="#64748B"/>
<path d="M5.70839 3.79888C5.65731 3.7989 5.60706 3.78707 5.56223 3.76456C5.51741 3.74205 5.47943 3.70959 5.45185 3.67007L4.19294 1.85854C4.15381 1.79616 4.14235 1.72242 4.16088 1.65246C4.17942 1.5825 4.22651 1.52174 4.29246 1.48289C4.35841 1.44404 4.43812 1.43004 4.51501 1.44378C4.5919 1.45752 4.66012 1.49786 4.70543 1.5566L5.96427 3.36812C5.99362 3.41039 6.01009 3.45913 6.01195 3.50925C6.0138 3.55937 6.00105 3.60896 5.9749 3.65297C5.94875 3.69698 5.91021 3.73385 5.86333 3.7595C5.81645 3.78515 5.76295 3.79874 5.70839 3.79888Z" fill="#64748B"/>
<path d="M1.71737 13.3994C1.65167 13.3993 1.58783 13.3796 1.53529 13.3434C1.48275 13.3071 1.44437 13.2562 1.42587 13.1983C1.40737 13.1403 1.40967 13.0785 1.43257 13.0219C1.45546 12.9653 1.49765 12.9169 1.55284 12.8842L3.52344 11.7258C3.55705 11.7038 3.59517 11.6885 3.63546 11.6805C3.67574 11.6725 3.71736 11.6722 3.75781 11.6794C3.79827 11.6866 3.8367 11.7012 3.8708 11.7225C3.9049 11.7438 3.93395 11.7713 3.95619 11.8032C3.97843 11.8351 3.99343 11.8707 4.00023 11.908C4.00702 11.9454 4.00544 11.9836 3.99569 12.0205C3.98594 12.0573 3.96819 12.0919 3.94347 12.1222C3.91875 12.1525 3.88761 12.1779 3.85191 12.1969L1.88131 13.3553C1.83238 13.3841 1.77548 13.3994 1.71737 13.3994Z" fill="#64748B"/>
<path d="M14.1355 15.9087C14.0845 15.9088 14.0342 15.8971 13.9894 15.8746C13.9446 15.852 13.9066 15.8194 13.879 15.7799L12.6189 13.968C12.5798 13.9056 12.5683 13.8317 12.5868 13.7618C12.6054 13.6918 12.6525 13.6311 12.7184 13.5922C12.7844 13.5533 12.8641 13.5394 12.941 13.5531C13.0179 13.5668 13.0861 13.6073 13.1314 13.666L14.3915 15.478C14.435 15.5405 14.4497 15.6163 14.4324 15.6887C14.4152 15.7612 14.3674 15.8245 14.2995 15.8646C14.2498 15.8918 14.1934 15.907 14.1355 15.9087Z" fill="#64748B"/>
<path d="M14.8914 5.65844C14.8257 5.65828 14.7618 5.63863 14.7093 5.60237C14.6567 5.56611 14.6184 5.51523 14.5999 5.45728C14.5814 5.39933 14.5837 5.33748 14.6066 5.28087C14.6295 5.22426 14.6716 5.17593 14.7268 5.14316L16.6974 3.98489C16.731 3.96298 16.7692 3.94748 16.8094 3.93949C16.8497 3.93151 16.8913 3.93117 16.9318 3.9384C16.9723 3.94563 17.0107 3.96033 17.0448 3.98161C17.0789 4.00289 17.1079 4.03026 17.1302 4.06216C17.1524 4.09405 17.1674 4.12982 17.1742 4.16718C17.181 4.20455 17.1794 4.24278 17.1697 4.27959C17.1599 4.3164 17.1422 4.35102 17.1175 4.38133C17.0927 4.41164 17.0616 4.43694 17.0259 4.45586L15.0553 5.61427C15.0064 5.64309 14.9495 5.65836 14.8914 5.65844Z" fill="#64748B"/>
<path d="M3.47811 5.98332C3.4265 5.98323 3.3758 5.97109 3.33069 5.94804L1.28512 4.90559C1.21441 4.86957 1.1622 4.80923 1.13992 4.7378C1.11764 4.66637 1.12714 4.58974 1.16633 4.52474C1.20552 4.45975 1.27115 4.41176 1.34886 4.39128C1.42657 4.37079 1.50993 4.37946 1.58063 4.41548L3.62621 5.45792C3.68551 5.48794 3.73225 5.53521 3.75905 5.59235C3.78585 5.64949 3.79113 5.7133 3.77415 5.77354C3.75718 5.83378 3.71887 5.88707 3.66526 5.92506C3.61165 5.96306 3.54581 5.98355 3.47811 5.98332Z" fill="#64748B"/>
<path d="M4.93463 16.172C4.88157 16.172 4.8294 16.1593 4.78334 16.1351C4.73728 16.1108 4.69889 16.076 4.67199 16.034C4.64509 15.992 4.63061 15.9441 4.62997 15.8953C4.62933 15.8466 4.64256 15.7985 4.66835 15.7559L5.80111 13.8755C5.8403 13.8106 5.90593 13.7626 5.98364 13.7421C6.06135 13.7216 6.14479 13.7303 6.21549 13.7663C6.28619 13.8023 6.3384 13.8626 6.36068 13.9341C6.38296 14.0055 6.37346 14.0821 6.33428 14.1471L5.20152 16.0276C5.17588 16.072 5.13735 16.1089 5.09024 16.1344C5.04313 16.1599 4.9893 16.1729 4.93463 16.172Z" fill="#64748B"/>
<path d="M17.1517 12.9514C17.1001 12.9513 17.0493 12.9391 17.0042 12.9161L14.9574 11.8738C14.8867 11.8377 14.8345 11.7773 14.8122 11.7058C14.7899 11.6344 14.7994 11.5578 14.8386 11.4928C14.8778 11.4278 14.9435 11.3798 15.0212 11.3593C15.0989 11.3388 15.1822 11.3476 15.2529 11.3837L17.2997 12.426C17.3347 12.4438 17.3656 12.4679 17.3905 12.4967C17.4154 12.5255 17.4339 12.5584 17.445 12.5938C17.456 12.6291 17.4594 12.6662 17.4549 12.7027C17.4503 12.7393 17.438 12.7748 17.4186 12.8069C17.3929 12.8513 17.3544 12.8882 17.3073 12.9138C17.2602 12.9393 17.2063 12.9523 17.1517 12.9514Z" fill="#64748B"/>
<path d="M12.5148 3.60286C12.4617 3.60286 12.4096 3.59016 12.3635 3.56594C12.3175 3.54172 12.2791 3.50679 12.2522 3.46475C12.2253 3.4227 12.2108 3.37499 12.2102 3.32622C12.2095 3.27744 12.2228 3.22937 12.2485 3.18673L13.3812 1.30642C13.4006 1.27424 13.4268 1.24578 13.4581 1.22287C13.4895 1.19996 13.5254 1.18296 13.5638 1.17282C13.6023 1.16268 13.6426 1.15963 13.6823 1.16379C13.7221 1.16796 13.7606 1.17932 13.7956 1.19716C13.8306 1.215 13.8614 1.23893 13.8864 1.26772C13.9113 1.29652 13.9298 1.32958 13.9408 1.36495C13.9518 1.40032 13.9552 1.43738 13.9507 1.47394C13.9462 1.5105 13.9338 1.54583 13.9144 1.57801L12.7817 3.45832C12.7561 3.50271 12.7175 3.53975 12.6704 3.56526C12.6233 3.59076 12.5694 3.60377 12.5148 3.60286Z" fill="#64748B"/>
<path d="M9.29169 12.2316C11.4337 12.2316 13.1701 10.6354 13.1701 8.6664C13.1701 6.69739 11.4337 5.1012 9.29169 5.1012C7.1497 5.1012 5.41327 6.69739 5.41327 8.6664C5.41327 10.6354 7.1497 12.2316 9.29169 12.2316Z" fill="#64748B"/>
</g>
<defs>
<clipPath id="clip0_17_760">
<rect width="29.75" height="30.75" fill="white" transform="translate(0.000183105 0.125)"/>
</clipPath>
</defs>
</svg>
