<svg width="87" height="40" viewBox="0 0 87 40" fill="none" xmlns="http://www.w3.org/2000/svg">
<rect width="87" height="39.3962" rx="19.6981" fill="white"/>
<rect x="0.5" y="0.5" width="86" height="38.3962" rx="19.1981" stroke="black" stroke-opacity="0.1"/>
<line x1="12.9811" y1="13.044" x2="32.9811" y2="13.044" stroke="#64748B" stroke-width="1.64151"/>
<line x1="12.9811" y1="19.7107" x2="32.9811" y2="19.7107" stroke="#64748B" stroke-width="1.64151"/>
<line x1="12.9811" y1="26.3774" x2="32.9811" y2="26.3774" stroke="#64748B" stroke-width="1.64151"/>
<g clip-path="url(#clip0_17_157)">
<g clip-path="url(#clip1_17_157)">
<path d="M59.2452 8.20755C52.8985 8.20755 47.7546 13.3514 47.7546 19.6981C47.7546 26.0449 52.8985 31.1887 59.2452 31.1887C65.5919 31.1887 70.7358 26.0449 70.7358 19.6981C70.7358 13.3514 65.5919 8.20755 59.2452 8.20755ZM59.2452 13.9528C61.0303 13.9528 62.4769 15.3999 62.4769 17.1846C62.4769 18.9692 61.0316 20.4163 59.2452 20.4163C57.4606 20.4163 56.0135 18.9692 56.0135 17.1846C56.0135 15.3999 57.4588 13.9528 59.2452 13.9528ZM59.2452 28.316C56.8694 28.316 54.7163 27.3497 53.1543 25.7895C53.8814 23.9128 55.6768 22.5708 57.8089 22.5708H60.6815C62.8154 22.5708 64.6108 23.9119 65.3361 25.7895C63.7741 27.351 61.6196 28.316 59.2452 28.316Z" fill="#64748B"/>
</g>
</g>
<defs>
<clipPath id="clip0_17_157">
<rect width="29.5472" height="29.5472" fill="white" transform="translate(44.4717 4.92453)"/>
</clipPath>
<clipPath id="clip1_17_157">
<rect width="22.9811" height="22.9811" fill="white" transform="translate(47.7546 8.20755)"/>
</clipPath>
</defs>
</svg>
